<svg id="Layer_1" data-name="Layer 1" xmlns="http://www.w3.org/2000/svg" viewBox="0 0 418.08 418.12"><defs><style>.cls-1{fill:#1fbc67;}.cls-2{fill:#fcfefd;}.cls-3{fill:#fefefe;}</style></defs><title>ai camp logo1</title><path class="cls-1" d="M89.24,393v-10.8a30.87,30.87,0,0,0,.17-4.08,2.33,2.33,0,0,0,.06-.35,203.19,203.19,0,0,1,6.28-43.2A208.72,208.72,0,0,1,274.59,178.59c5.24-.58,10.5-.93,15.77-1.22s10.72-.23,16.08,0a2.2,2.2,0,0,0,.36,0A208.87,208.87,0,0,1,506.9,372.34a11.75,11.75,0,0,0,.42,3.82v19c-.06.09-.17.19-.18.28-.22,4.24-.55,8.47-1,12.7-.35,3.58-.81,7.15-1.35,10.7a199.78,199.78,0,0,1-8,33.14A209.83,209.83,0,0,1,383.09,577.43,210.62,210.62,0,0,1,311.18,595c-4,.28-8,.26-11.95.3a169.53,169.53,0,0,1-18.85-.74c-2.76-.28-5.53-.4-8.28-.77-3.51-.47-7-1.09-10.49-1.68-5.27-.88-10.49-2-15.67-3.35a198.21,198.21,0,0,1-24.39-7.91,205.68,205.68,0,0,1-23.28-11c-5-2.75-9.86-5.64-14.62-8.77a213.77,213.77,0,0,1-20.36-15.21c-4.07-3.44-8-7-11.8-10.73-3.48-3.38-6.74-7-10-10.61q-4.54-5.1-8.72-10.49-6-7.75-11.19-16a213.22,213.22,0,0,1-13.32-24.5,200.42,200.42,0,0,1-10-26.19c-1.66-5.52-3.08-11.11-4.35-16.74a205.31,205.31,0,0,1-3.72-23.34A131.55,131.55,0,0,1,89.43,394C89.43,393.63,89.6,393.24,89.24,393ZM301.91,435.8a29.76,29.76,0,0,0,6.69,10.29c5,5,11.06,8.22,17.66,10.49a2.08,2.08,0,0,1,1.58,1.89c.94,5.52,3.27,10.27,8,13.52a21,21,0,0,0,12.37,3.51,1.48,1.48,0,0,1,1.62,1c.56,1.32,1.17,2.62,1.77,3.93,1.39,3,2.39,6.18,4,9.09q10.44,18.87,20.36,38a1.93,1.93,0,0,0,2.2,1.21c4-.27,8-.44,12-.64,9.5-.46,19-.9,28.5-1.37,1.45-.07,1.45-.1,1-1.44-5.76-15.7-10.55-31.66-12.71-48.31a53.33,53.33,0,0,1-.19-14.93,1.24,1.24,0,0,1,1.28-1.24c1.87-.19,3.74-.39,5.6-.68,5.44-.84,10.72-2.18,15.47-5.1,7.12-4.37,10.05-11.34,8.28-19.52a36,36,0,0,0-5.67-12.46c-.47-.69-.42-1.05.18-1.55a25.85,25.85,0,0,0,3.31-3.47c4.62-5.65,6.76-12.22,7.25-19.42.62-9.14-1.45-17.46-7.36-24.62a1.71,1.71,0,0,1-.29-1.92,36.77,36.77,0,0,0,1.36-19.61c-2.28-11.28-8.58-19.79-18.28-25.84a2.42,2.42,0,0,1-1.39-2.43,26.58,26.58,0,0,0-1.21-9c-5.58-17.67-17.66-28.49-35.36-33.31a1.87,1.87,0,0,1-1.36-1.12c-6.16-13.09-16.59-20.62-30.62-23.44-4.55-.92-9.14-.72-13.74-.47-3.18.17-6.4-.19-9.56.51a1.29,1.29,0,0,1-1.56-.66,25.1,25.1,0,0,0-7.47-6.82,34.86,34.86,0,0,0-16.18-4.69c-10.25-.66-19.16,2.32-26.29,9.95a1.21,1.21,0,0,1-1.63.31,36.74,36.74,0,0,0-8.74-2.44,61.61,61.61,0,0,0-25.87,1.84c-11.46,3.16-21.18,9.05-28.3,18.79a1.83,1.83,0,0,1-1.46.63,43.77,43.77,0,0,0-18.56,7.93,70.57,70.57,0,0,0-15.28,15.29c-3.76,5-6.56,10.5-7.21,16.86-.06.52-.34.66-.74.8a25.88,25.88,0,0,0-11.69,8.26c-3.22,3.85-6.07,7.94-7.25,12.95-1.84,7.79-.28,15.05,3.49,21.95a1.45,1.45,0,0,1-.18,2c-9,11.21-11.7,23.74-7,37.43,5.39,15.86,20.79,26.27,37.9,26.86,4.51.16,9-.38,13.54,0a19.4,19.4,0,0,0,6.08-.31,1.13,1.13,0,0,1,1.5.66,18.74,18.74,0,0,0,6.55,7A42,42,0,0,0,227,438c1.34.12,2.9-.41,4,.11s1.73,2,2.65,3a41.51,41.51,0,0,0,27.91,13.75,43.13,43.13,0,0,0,34-11.52A41,41,0,0,0,301.91,435.8Z" transform="translate(-89.24 -177.2)"/><path class="cls-2" d="M306.44,177.2v.19q-8-.37-16.08,0v-.17Z" transform="translate(-89.24 -177.2)"/><path class="cls-2" d="M89.24,378.08h.17a30.87,30.87,0,0,1-.17,4.08Z" transform="translate(-89.24 -177.2)"/><path class="cls-2" d="M301.91,435.8a41,41,0,0,1-6.36,7.59,43.13,43.13,0,0,1-34,11.52,41.51,41.51,0,0,1-27.91-13.75c-.92-1-1.54-2.5-2.65-3s-2.66,0-4-.11a42,42,0,0,1-18.75-6,18.74,18.74,0,0,1-6.55-7,1.13,1.13,0,0,0-1.5-.66,19.4,19.4,0,0,1-6.08.31c-4.52-.42-9,.12-13.54,0-17.11-.59-32.51-11-37.9-26.86-4.66-13.69-2-26.22,7-37.43a1.45,1.45,0,0,0,.18-2c-3.77-6.9-5.33-14.16-3.49-21.95,1.18-5,4-9.1,7.25-12.95a25.88,25.88,0,0,1,11.69-8.26c.4-.14.68-.28.74-.8.65-6.36,3.45-11.83,7.21-16.86a70.57,70.57,0,0,1,15.28-15.29,43.77,43.77,0,0,1,18.56-7.93,1.83,1.83,0,0,0,1.46-.63c7.12-9.74,16.84-15.63,28.3-18.79A61.61,61.61,0,0,1,262.73,253a36.74,36.74,0,0,1,8.74,2.44,1.21,1.21,0,0,0,1.63-.31c7.13-7.63,16-10.61,26.29-9.95a34.86,34.86,0,0,1,16.18,4.69,25.1,25.1,0,0,1,7.47,6.82,1.29,1.29,0,0,0,1.56.66c3.16-.7,6.38-.34,9.56-.51,4.6-.25,9.19-.45,13.74.47,14,2.82,24.46,10.35,30.62,23.44a1.87,1.87,0,0,0,1.36,1.12c17.7,4.82,29.78,15.64,35.36,33.31a26.58,26.58,0,0,1,1.21,9,2.42,2.42,0,0,0,1.39,2.43c9.7,6.05,16,14.56,18.28,25.84a36.77,36.77,0,0,1-1.36,19.61,1.71,1.71,0,0,0,.29,1.92c5.91,7.16,8,15.48,7.36,24.62-.49,7.2-2.63,13.77-7.25,19.42a25.85,25.85,0,0,1-3.31,3.47c-.6.5-.65.86-.18,1.55a36,36,0,0,1,5.67,12.46c1.77,8.18-1.16,15.15-8.28,19.52-4.75,2.92-10,4.26-15.47,5.1-1.86.29-3.73.49-5.6.68a1.24,1.24,0,0,0-1.28,1.24A53.33,53.33,0,0,0,406.9,477c2.16,16.65,7,32.61,12.71,48.31.49,1.34.49,1.37-1,1.44-9.5.47-19,.91-28.5,1.37-4,.2-8,.37-12,.64a1.93,1.93,0,0,1-2.2-1.21q-10-19.12-20.36-38c-1.61-2.91-2.61-6.08-4-9.09-.6-1.31-1.21-2.61-1.77-3.93a1.48,1.48,0,0,0-1.62-1A21,21,0,0,1,335.86,472c-4.75-3.25-7.08-8-8-13.52a2.08,2.08,0,0,0-1.58-1.89c-6.6-2.27-12.67-5.49-17.66-10.49A29.76,29.76,0,0,1,301.91,435.8Zm75.34,74.7a11.68,11.68,0,0,0,.18-1.24c.17-2.91.33-5.83.49-8.74q1.4-25.54,2.8-51.11a1.22,1.22,0,0,0-.8-1.35,8.29,8.29,0,0,1-4.84-7.56,1.26,1.26,0,0,0-.93-1.38c-4.5-1.76-9-3.57-13.45-5.36q-9.61-3.86-19.24-7.68c-.77-.3-1-.59-.59-1.35a14.13,14.13,0,0,0,1-2.56c.27-.95.62-1.1,1.58-.71,10.77,4.35,21.56,8.65,32.33,13a1.38,1.38,0,0,0,1.79-.25,8.47,8.47,0,0,1,11.71-.48,1.18,1.18,0,0,0,1.56.14c9.53-4.86,19.09-9.66,28.6-14.57a27,27,0,0,0,9.83-8.42c5.48-7.76,6.82-24-3.13-33.26-.84-.78-2-1.55-2.28-2.53s.77-2.09,1.24-3.13a28.21,28.21,0,0,0,2.37-16.48c-1.64-10-7.26-17.19-16-22.09a3.54,3.54,0,0,0-1.58-.47l-16.74-1.14L366.52,330q-13.17-.89-26.32-1.79a1.13,1.13,0,0,0-1.22.64,8.56,8.56,0,0,1-11.89,3,1.52,1.52,0,0,0-1.73,0c-2.86,1.58-5.76,3.11-8.65,4.65-7.74,4.15-15.49,8.27-23.22,12.45-.82.44-1.23.39-1.6-.48a12.64,12.64,0,0,0-1.18-2.21c-.61-.89-.48-1.3.51-1.83,10.37-5.49,20.71-11.05,31.07-16.57a1.27,1.27,0,0,0,.81-1.64,8.07,8.07,0,0,1,3.19-8.58,2.2,2.2,0,0,0,1-2.55q-4-22.17-7.86-44.36c-1.05-6-4-10.61-9.4-13.56a26.9,26.9,0,0,0-12.35-3,23,23,0,0,0-15.18,4.58,29.45,29.45,0,0,0-6.45,7.66c-.87,1.34-.91,1.38-2.27.48a32,32,0,0,0-15.22-5.29,53.9,53.9,0,0,0-17.72,1.59C229.52,266,220,271.57,214,281.94a1.64,1.64,0,0,1-1.55.86,32.83,32.83,0,0,0-15.64,4.8c-6.21,3.7-11.16,8.78-15.61,14.38-4.6,5.79-7.41,12.13-5.89,19.75.18.92-.44.84-1,.91-2.68.37-5.4.54-7.89,1.81-4.16,2.12-6.85,5.68-9.3,9.46a15.94,15.94,0,0,0-2.49,9.58c.25,5.43,2.46,10.1,5.63,14.4a2,2,0,0,0,1,.76q7.92,2.73,15.84,5.5a.93.93,0,0,0,1.21-.29,8.53,8.53,0,0,1,11.53-1.74.82.82,0,0,0,1.2-.15l2.77-2.47c3.2-2.84,6.41-5.67,9.58-8.54.63-.57,1-.57,1.5.1a15,15,0,0,0,1.84,2.06c.76.7.61,1.1-.12,1.75-4.19,3.65-8.32,7.36-12.49,11a1.59,1.59,0,0,0-.62,1.73,8.2,8.2,0,0,1-2.39,7.79,1.28,1.28,0,0,0-.33,1.74c3.89,8.53,7.84,17,11.59,25.64,1.85,4.23,4.44,8.16,5.35,12.79.14.7.35,1.39.55,2.08a11.86,11.86,0,0,0,6.6,7.8c6.21,2.88,12.6,4.65,19.49,2.73a1.19,1.19,0,0,1,1.59.72,31.93,31.93,0,0,0,5.72,7.65,34.76,34.76,0,0,0,41.37,4.91A32.29,32.29,0,0,0,297.29,425a1.52,1.52,0,0,1,1.67-1.11c2.56.05,5.12,0,7.68-.05,2,0,2,0,2.2,2,.54,4.87,2,9.35,5.39,13.06,3.85,4.21,8.71,6.79,13.94,8.83a2.21,2.21,0,0,0,2.39-.27c1.61-1.15,3.29-2.19,5.06-3.36.05.48.08.75.1,1,.32,3.9.48,7.82,1,11.7.61,4.57,2.83,8,7.64,9.23a16.82,16.82,0,0,0,5.83.4,5.83,5.83,0,0,1,5.69,2.59,21.12,21.12,0,0,1,2.36,4.16,202.24,202.24,0,0,0,10.82,22.14C371.85,500.22,374.41,505.23,377.25,510.5ZM335,266c-1.54,0-3.66,0-5.77,0a12.9,12.9,0,0,0-3.91.52c-1.55.5-1.55.52-1.27,2.09q2.35,13.28,4.7,26.54,1.73,9.78,3.47,19.57c.1.56.1,1.09.95,1.26a8.3,8.3,0,0,1,6.78,6.48,1,1,0,0,0,1,.87l4.54.3,30.38,2c10.08.68,20.17,1.35,30.25,2.08,1,.07,1.23-.33,1.27-1.16a26.38,26.38,0,0,0-.56-7.62C403.36,304,389.37,291.72,374,290a2.34,2.34,0,0,1-2.34-1.94c-3.14-10-9.93-16.65-19.64-20.35A35.85,35.85,0,0,0,335,266Zm72.51,252.3c-.23-.76-.42-1.41-.62-2-4.36-13.93-8.2-28-9.38-42.6-.52-6.49-.35-12.94,1.87-19.18.28-.78.6-1.25,1.48-1.19a6.87,6.87,0,0,0,3.35-.74,6.59,6.59,0,0,1,2.2-.55,77.36,77.36,0,0,0,8.3-1.14c3.69-.79,7.31-1.78,10.44-4a8,8,0,0,0,3.51-8.54c-1-5.29-3.83-9.58-7.11-13.67-.48-.59-.87-.28-1.33,0q-13.56,6.88-27.13,13.75a1.22,1.22,0,0,0-.76,1.39,8.52,8.52,0,0,1-5.75,8.75,1.2,1.2,0,0,0-.94,1.26c-.44,8.62-.94,17.24-1.41,25.86q-1.17,21.36-2.34,42.72c-.06,1,.12,1.26,1.13,1.2,5.38-.3,10.77-.53,16.16-.79ZM188.13,415.35c2,.1,4.37.24,6.72.33a10.74,10.74,0,0,0,6.25-1.23c.68-.42.78-.79.45-1.52q-7.76-17.06-15.46-34.12a1.26,1.26,0,0,0-1.23-.87,8.51,8.51,0,0,1-8.45-8,1,1,0,0,0-.78-1q-7.86-2.7-15.71-5.47a1,1,0,0,0-1.16.26c-7.19,7.29-10.51,15.94-8.89,26.17,2.18,13.67,13.89,23.57,27.52,25.42A58.18,58.18,0,0,0,188.13,415.35Z" transform="translate(-89.24 -177.2)"/><path class="cls-1" d="M377.25,510.5c-2.84-5.27-5.4-10.28-8.19-15.16a202.24,202.24,0,0,1-10.82-22.14,21.12,21.12,0,0,0-2.36-4.16,5.83,5.83,0,0,0-5.69-2.59,16.82,16.82,0,0,1-5.83-.4c-4.81-1.19-7-4.66-7.64-9.23-.52-3.88-.68-7.8-1-11.7,0-.27-.05-.54-.1-1-1.77,1.17-3.45,2.21-5.06,3.36a2.21,2.21,0,0,1-2.39.27c-5.23-2-10.09-4.62-13.94-8.83-3.4-3.71-4.85-8.19-5.39-13.06-.22-2-.24-2-2.2-2-2.56,0-5.12.1-7.68.05a1.52,1.52,0,0,0-1.67,1.11,32.29,32.29,0,0,1-14.23,16.44,34.76,34.76,0,0,1-41.37-4.91,31.93,31.93,0,0,1-5.72-7.65,1.19,1.19,0,0,0-1.59-.72c-6.89,1.92-13.28.15-19.49-2.73a11.86,11.86,0,0,1-6.6-7.8c-.2-.69-.41-1.38-.55-2.08-.91-4.63-3.5-8.56-5.35-12.79-3.75-8.6-7.7-17.11-11.59-25.64a1.28,1.28,0,0,1,.33-1.74,8.2,8.2,0,0,0,2.39-7.79,1.59,1.59,0,0,1,.62-1.73c4.17-3.67,8.3-7.38,12.49-11,.73-.65.88-1.05.12-1.75a15,15,0,0,1-1.84-2.06c-.51-.67-.87-.67-1.5-.1-3.17,2.87-6.38,5.7-9.58,8.54L191.06,362a.82.82,0,0,1-1.2.15,8.53,8.53,0,0,0-11.53,1.74.93.93,0,0,1-1.21.29q-7.92-2.76-15.84-5.5a2,2,0,0,1-1-.76c-3.17-4.3-5.38-9-5.63-14.4a15.94,15.94,0,0,1,2.49-9.58c2.45-3.78,5.14-7.34,9.3-9.46,2.49-1.27,5.21-1.44,7.89-1.81.55-.07,1.17,0,1-.91-1.52-7.62,1.29-14,5.89-19.75,4.45-5.6,9.4-10.68,15.61-14.38a32.83,32.83,0,0,1,15.64-4.8,1.64,1.64,0,0,0,1.55-.86c6-10.37,15.53-15.91,26.81-18.77a53.9,53.9,0,0,1,17.72-1.59,32,32,0,0,1,15.22,5.29c1.36.9,1.4.86,2.27-.48a29.45,29.45,0,0,1,6.45-7.66,23,23,0,0,1,15.18-4.58,26.9,26.9,0,0,1,12.35,3c5.37,2.95,8.35,7.58,9.4,13.56q3.89,22.19,7.86,44.36a2.2,2.2,0,0,1-1,2.55,8.07,8.07,0,0,0-3.19,8.58,1.27,1.27,0,0,1-.81,1.64c-10.36,5.52-20.7,11.08-31.07,16.57-1,.53-1.12.94-.51,1.83a12.64,12.64,0,0,1,1.18,2.21c.37.87.78.92,1.6.48,7.73-4.18,15.48-8.3,23.22-12.45,2.89-1.54,5.79-3.07,8.65-4.65a1.52,1.52,0,0,1,1.73,0,8.56,8.56,0,0,0,11.89-3,1.13,1.13,0,0,1,1.22-.64q13.16.92,26.32,1.79l26.67,1.78,16.74,1.14a3.54,3.54,0,0,1,1.58.47c8.73,4.9,14.35,12.08,16,22.09a28.21,28.21,0,0,1-2.37,16.48c-.47,1-1.53,2.12-1.24,3.13s1.44,1.75,2.28,2.53c9.95,9.25,8.61,25.5,3.13,33.26a27,27,0,0,1-9.83,8.42c-9.51,4.91-19.07,9.71-28.6,14.57a1.18,1.18,0,0,1-1.56-.14,8.47,8.47,0,0,0-11.71.48,1.38,1.38,0,0,1-1.79.25c-10.77-4.33-21.56-8.63-32.33-13-1-.39-1.31-.24-1.58.71a14.13,14.13,0,0,1-1,2.56c-.38.76-.18,1,.59,1.35q9.63,3.81,19.24,7.68c4.48,1.79,8.95,3.6,13.45,5.36a1.26,1.26,0,0,1,.93,1.38,8.29,8.29,0,0,0,4.84,7.56,1.22,1.22,0,0,1,.8,1.35q-1.43,25.56-2.8,51.11c-.16,2.91-.32,5.83-.49,8.74A11.68,11.68,0,0,1,377.25,510.5ZM313.44,369.29c.15-1.16.24-2.32.47-3.45.19-.89-.17-1-.92-1-2.79,0-5.6.05-8.39,0-.84,0-1.07.27-1.16,1-.27,2.3-.61,4.59-.94,6.88q-1.85,13.13-3.7,26.23c-.12.78.12.94.86.93,3,0,6-.06,9,0,.84,0,1-.37,1.07-1,.26-1.94.51-3.89.8-5.82.63-4.35,1.23-8.7,1.93-13a8,8,0,0,1,2.63-5c1.75-1.48,5-2.09,6.64-1.1,2.15,1.28,2,3.44,1.88,5.55a2.2,2.2,0,0,1,0,.36c-.88,6.37-1.75,12.74-2.67,19.1-.11.77.07,1,.83.95,3,0,6-.05,9,0,.79,0,1-.29,1.1-1,.57-4.23,1.13-8.47,1.76-12.7.4-2.64.51-5.33,1.41-7.88a6.93,6.93,0,0,1,7.44-4.8,3.19,3.19,0,0,1,3.15,2.62,7.91,7.91,0,0,1,.15,3.21Q344.41,389.2,343,399c-.1.74,0,1,.8.95,3-.05,5.92-.07,8.88,0,1,0,1.17-.38,1.28-1.22.65-5,1.38-9.89,2-14.84.48-3.56,1.18-7.1.83-10.73-.38-3.82-1.93-6.89-5.72-8.26-4.34-1.57-11.52-1.2-15.57,3.82-.34.43-.72.84-1.18,1.37a7.86,7.86,0,0,0-4.62-5,14.1,14.1,0,0,0-15.59,3.57C314,368.9,313.86,369.24,313.44,369.29ZM206.93,339.92c3.75,0,7.5,0,11.25,0a1.49,1.49,0,0,0,1.54-1c1.59-3,3.24-6.06,4.82-9.1a1.21,1.21,0,0,1,1.29-.77c6,0,11.92,0,17.88,0,.82,0,1.07.33,1.25,1,.77,3,1.6,5.94,2.35,8.92.17.67.43.89,1.12.89,3.64,0,7.28-.05,10.92,0,.86,0,.89-.29.68-1-.71-2.32-1.39-4.66-2.08-7q-6.19-20.94-12.38-41.9c-.24-.81-.56-1.06-1.39-1q-3.6.09-7.2,0a1.64,1.64,0,0,0-1.67,1q-13.94,24.4-27.93,48.76A1.85,1.85,0,0,0,206.93,339.92Zm169.71,29.45c.19-1.43.29-2.54.51-3.63.16-.75-.07-.88-.75-.87-2.4,0-4.8,0-7.2,0-2,0-2,0-2.25,2q-3.4,24.21-6.85,48.4c-.11.82,0,1,.83,1q4.5-.06,9,0c.7,0,1-.2,1.07-.91q.94-6.94,2-13.88c.24-1.66.5-3.32.79-5.26a8,8,0,0,0,4.36,3.67C384.8,402.05,390.84,401,396,396a23,23,0,0,0,7.14-17.57c-.16-10-7.8-15.28-16.94-14.15C382.52,364.75,379.49,366.58,376.64,369.37Zm-164.16,9.37c0,.36,0,.72,0,1.08.38,8.19,3.73,14.62,11.19,18.5a26.69,26.69,0,0,0,13.46,2.79A25.57,25.57,0,0,0,255.7,393c.51-.55.49-.81-.08-1.27q-3.57-2.93-7.08-5.93c-.54-.46-.8-.35-1.23.13a14.63,14.63,0,0,1-4.12,3.25c-6.06,3.18-15,2-18-6.57a17,17,0,0,1-.29-10c1.88-7.24,6-12.54,13.61-14.25,4.37-1,8.54-.39,11.7,3.3.47.56.74.32,1.16,0,2.7-2,5.4-4,8.15-5.91.78-.54.72-.93.2-1.6a15.11,15.11,0,0,0-6-4.61,25.11,25.11,0,0,0-13.38-1.71C223.88,349.67,212.48,362.38,212.48,378.74Zm69.69,17.09a12.26,12.26,0,0,1-.29,3.23c-.09.72.08.88.77.87q4.08,0,8.16,0c.73,0,1-.17,1.12-.94.56-4.4,1.19-8.79,1.8-13.18a65.79,65.79,0,0,0,1-10.49c-.13-6-3.05-9.55-8.89-10.77a26.79,26.79,0,0,0-20.54,4.68c-.55.42-.68.7-.16,1.3,1.33,1.49,2.57,3.06,3.82,4.62.4.51.67.63,1.21.12a13.65,13.65,0,0,1,4-2.63,10,10,0,0,1,7.35-.57,4.81,4.81,0,0,1,3.48,4.41c.05.76-.1,1.18-1,1.13-1.24-.07-2.48,0-3.72,0-4.16.14-8.31.47-12.21,2.1-3.7,1.54-6.75,3.78-8,7.85-2.12,6.89.93,12,8,13.1C273.41,401.48,278.27,400.22,282.17,395.83Zm-11.38-55.91h3.11c2.46,0,2.46,0,2.86-2.48.06-.4.12-.79.17-1.19l3.72-26.45q1.37-9.8,2.76-19.57c.13-.91,0-1.25-1-1.22-2.51.08-5,0-7.55,0s-2.59,0-3,2.68q-1.85,13.35-3.74,26.69c-1,6.88-1.92,13.76-2.91,20.64-.1.7.06.9.77.88C267.59,339.89,269.19,339.92,270.79,339.92Z" transform="translate(-89.24 -177.2)"/><path class="cls-1" d="M335,266a35.85,35.85,0,0,1,17,1.79c9.71,3.7,16.5,10.31,19.64,20.35A2.34,2.34,0,0,0,374,290c15.4,1.68,29.39,14,32.9,28.85a26.38,26.38,0,0,1,.56,7.62c0,.83-.26,1.23-1.27,1.16-10.08-.73-20.17-1.4-30.25-2.08l-30.38-2-4.54-.3a1,1,0,0,1-1-.87,8.3,8.3,0,0,0-6.78-6.48c-.85-.17-.85-.7-.95-1.26q-1.75-9.78-3.47-19.57-2.36-13.28-4.7-26.54c-.28-1.57-.28-1.59,1.27-2.09a12.9,12.9,0,0,1,3.91-.52C331.35,266,333.47,266,335,266Z" transform="translate(-89.24 -177.2)"/><path class="cls-1" d="M407.52,518.26l-8.33.42c-5.39.26-10.78.49-16.16.79-1,.06-1.19-.24-1.13-1.2q1.2-21.36,2.34-42.72c.47-8.62,1-17.24,1.41-25.86a1.2,1.2,0,0,1,.94-1.26,8.52,8.52,0,0,0,5.75-8.75,1.22,1.22,0,0,1,.76-1.39q13.57-6.84,27.13-13.75c.46-.23.85-.54,1.33,0,3.28,4.09,6.14,8.38,7.11,13.67a8,8,0,0,1-3.51,8.54c-3.13,2.23-6.75,3.22-10.44,4a77.36,77.36,0,0,1-8.3,1.14,6.59,6.59,0,0,0-2.2.55,6.87,6.87,0,0,1-3.35.74c-.88-.06-1.2.41-1.48,1.19-2.22,6.24-2.39,12.69-1.87,19.18,1.18,14.62,5,28.67,9.38,42.6C407.1,516.85,407.29,517.5,407.52,518.26Z" transform="translate(-89.24 -177.2)"/><path class="cls-1" d="M188.13,415.35a58.18,58.18,0,0,1-10.74-.06c-13.63-1.85-25.34-11.75-27.52-25.42-1.62-10.23,1.7-18.88,8.89-26.17a1,1,0,0,1,1.16-.26q7.85,2.76,15.71,5.47a1,1,0,0,1,.78,1,8.51,8.51,0,0,0,8.45,8,1.26,1.26,0,0,1,1.23.87q7.71,17.07,15.46,34.12c.33.73.23,1.1-.45,1.52a10.74,10.74,0,0,1-6.25,1.23C192.5,415.59,190.15,415.45,188.13,415.35Z" transform="translate(-89.24 -177.2)"/><path class="cls-2" d="M313.44,369.29c.42-.05.53-.39.73-.62a14.1,14.1,0,0,1,15.59-3.57,7.86,7.86,0,0,1,4.62,5c.46-.53.84-.94,1.18-1.37,4.05-5,11.23-5.39,15.57-3.82,3.79,1.37,5.34,4.44,5.72,8.26.35,3.63-.35,7.17-.83,10.73-.67,4.95-1.4,9.89-2,14.84-.11.84-.29,1.24-1.28,1.22-3-.08-5.92-.06-8.88,0-.78,0-.9-.21-.8-.95q1.41-9.8,2.73-19.59a7.91,7.91,0,0,0-.15-3.21,3.19,3.19,0,0,0-3.15-2.62,6.93,6.93,0,0,0-7.44,4.8c-.9,2.55-1,5.24-1.41,7.88-.63,4.23-1.19,8.47-1.76,12.7-.09.7-.31,1-1.1,1-3-.05-6,0-9,0-.76,0-.94-.18-.83-.95.92-6.36,1.79-12.73,2.67-19.1a2.2,2.2,0,0,0,0-.36c.13-2.11.27-4.27-1.88-5.55-1.67-1-4.89-.38-6.64,1.1a8,8,0,0,0-2.63,5c-.7,4.34-1.3,8.69-1.93,13-.29,1.93-.54,3.88-.8,5.82-.08.65-.23,1-1.07,1-3-.07-6-.05-9,0-.74,0-1-.15-.86-.93q1.88-13.11,3.7-26.23c.33-2.29.67-4.58.94-6.88.09-.77.32-1.06,1.16-1,2.79.06,5.6,0,8.39,0,.75,0,1.11.08.92,1C313.68,367,313.59,368.13,313.44,369.29Z" transform="translate(-89.24 -177.2)"/><path class="cls-3" d="M206.93,339.92a1.85,1.85,0,0,1,.45-1.16q14-24.37,27.93-48.76a1.64,1.64,0,0,1,1.67-1q3.6.09,7.2,0c.83,0,1.15.23,1.39,1Q251.72,311,258,332c.69,2.34,1.37,4.68,2.08,7,.21.69.18,1-.68,1-3.64-.05-7.28,0-10.92,0-.69,0-1-.22-1.12-.89-.75-3-1.58-5.95-2.35-8.92-.18-.7-.43-1-1.25-1-6,0-11.92,0-17.88,0a1.21,1.21,0,0,0-1.29.77c-1.58,3-3.23,6.06-4.82,9.1a1.49,1.49,0,0,1-1.54,1C214.43,339.89,210.68,339.92,206.93,339.92Zm31.22-36.13-8.33,15.67h12.31C240.82,314.28,239.52,309.18,238.15,303.79Z" transform="translate(-89.24 -177.2)"/><path class="cls-2" d="M376.64,369.37c2.85-2.79,5.88-4.62,9.52-5.07,9.14-1.13,16.78,4.13,16.94,14.15A23,23,0,0,1,396,396c-5.12,4.93-11.16,6-17.85,3.86a8,8,0,0,1-4.36-3.67c-.29,1.94-.55,3.6-.79,5.26q-1,6.94-2,13.88c-.1.71-.37.92-1.07.91q-4.5-.06-9,0c-.81,0-.94-.19-.83-1q3.47-24.19,6.85-48.4c.28-2,.27-2,2.25-2,2.4,0,4.8,0,7.2,0,.68,0,.91.12.75.87C376.93,366.83,376.83,367.94,376.64,369.37Zm5.43,21.87c5.88,0,10.05-4.35,10.05-10.48,0-4.39-2.68-7.13-7.05-7.2-5.8-.09-9.49,3.24-10.31,9.29C374.08,387.93,377,391.24,382.07,391.24Z" transform="translate(-89.24 -177.2)"/><path class="cls-2" d="M212.48,378.74c0-16.36,11.4-29.07,27.8-30.95a25.11,25.11,0,0,1,13.38,1.71,15.11,15.11,0,0,1,6,4.61c.52.67.58,1.06-.2,1.6-2.75,1.93-5.45,3.93-8.15,5.91-.42.31-.69.55-1.16,0-3.16-3.69-7.33-4.29-11.7-3.3-7.6,1.71-11.73,7-13.61,14.25a17,17,0,0,0,.29,10c3,8.59,12,9.75,18,6.57a14.63,14.63,0,0,0,4.12-3.25c.43-.48.69-.59,1.23-.13q3.51,3,7.08,5.93c.57.46.59.72.08,1.27a25.57,25.57,0,0,1-18.57,8.12,26.69,26.69,0,0,1-13.46-2.79c-7.46-3.88-10.81-10.31-11.19-18.5C212.46,379.46,212.48,379.1,212.48,378.74Z" transform="translate(-89.24 -177.2)"/><path class="cls-2" d="M282.17,395.83c-3.9,4.39-8.76,5.65-14.14,4.86-7.12-1.06-10.17-6.21-8-13.1,1.26-4.07,4.31-6.31,8-7.85,3.9-1.63,8.05-2,12.21-2.1,1.24,0,2.48-.09,3.72,0,.92.05,1.07-.37,1-1.13a4.81,4.81,0,0,0-3.48-4.41,10,10,0,0,0-7.35.57,13.65,13.65,0,0,0-4,2.63c-.54.51-.81.39-1.21-.12-1.25-1.56-2.49-3.13-3.82-4.62-.52-.6-.39-.88.16-1.3a26.79,26.79,0,0,1,20.54-4.68c5.84,1.22,8.76,4.8,8.89,10.77a65.79,65.79,0,0,1-1,10.49c-.61,4.39-1.24,8.78-1.8,13.18-.1.77-.39.95-1.12.94q-4.08-.06-8.16,0c-.69,0-.86-.15-.77-.87A12.26,12.26,0,0,0,282.17,395.83Zm-7.6-2.38c5.3-.05,8.45-2.79,9.2-7.95.11-.74,0-1-.79-1a59.69,59.69,0,0,0-6,.28,10.72,10.72,0,0,0-5.54,2.06,3.74,3.74,0,0,0-1.44,3.83,3.31,3.31,0,0,0,2.9,2.51C273.46,393.32,274,393.38,274.57,393.45Z" transform="translate(-89.24 -177.2)"/><path class="cls-2" d="M270.79,339.92c-1.6,0-3.2,0-4.8,0-.71,0-.87-.18-.77-.88,1-6.88,1.94-13.76,2.91-20.64q1.88-13.35,3.74-26.69c.37-2.67.33-2.68,3-2.68s5,0,7.55,0c1,0,1.16.31,1,1.22Q282,300,280.65,309.8l-3.72,26.45c-.05.4-.11.79-.17,1.19-.4,2.48-.4,2.48-2.86,2.48Z" transform="translate(-89.24 -177.2)"/><path class="cls-1" d="M238.15,303.79c1.37,5.39,2.67,10.49,4,15.67H229.82Z" transform="translate(-89.24 -177.2)"/><path class="cls-1" d="M382.07,391.24c-5.11,0-8-3.31-7.31-8.39.82-6.05,4.51-9.38,10.31-9.29,4.37.07,7.05,2.81,7.05,7.2C392.12,386.89,388,391.24,382.07,391.24Z" transform="translate(-89.24 -177.2)"/><path class="cls-1" d="M274.57,393.45c-.55-.07-1.11-.13-1.65-.23a3.31,3.31,0,0,1-2.9-2.51,3.74,3.74,0,0,1,1.44-3.83,10.72,10.72,0,0,1,5.54-2.06,59.69,59.69,0,0,1,6-.28c.8,0,.9.22.79,1C283,390.66,279.87,393.4,274.57,393.45Z" transform="translate(-89.24 -177.2)"/></svg>